<svg id="Layer_1" data-name="Layer 1" xmlns="http://www.w3.org/2000/svg" viewBox="0 0 257.15 257.15"><defs><style>.cls-1{fill:#557ebf;}.cls-2{fill:#ffcd05;}</style></defs><title>logo svg</title><circle class="cls-1" cx="128.58" cy="128.58" r="121.87"/><path class="cls-2" d="M146.9,274.31A128.57,128.57,0,0,1,56,54.82,128.57,128.57,0,1,1,237.82,236.65,127.7,127.7,0,0,1,146.9,274.31Zm0-243.73A115.16,115.16,0,1,0,262.06,145.74,115.29,115.29,0,0,0,146.9,30.58Z" transform="translate(-18.33 -17.16)"/><path class="cls-2" d="M197.78,161v-6.61H136.21v18.29h43.32v33.53H135.18V206c-28.55-3.38-50.74-28.57-50.74-59.14,0-32.89,25.65-59.54,57.3-59.54,1.62,0,3.24.07,4.83.21v-.13h49.79V69.14H145.79v0q-2-.12-4-.12c-41.37,0-74.9,34.84-74.9,77.83s33.53,77.83,74.9,77.83q3.56,0,7-.35h49V161Z" transform="translate(-18.33 -17.16)"/><rect class="cls-2" x="117.89" y="111.9" width="61.56" height="18.29"/></svg>